<?xml version="1.0" encoding="UTF-8" standalone="no"?>
<!-- Created with Inkscape (http://www.inkscape.org/) -->

<svg
   xmlns:dc="http://purl.org/dc/elements/1.1/"
   xmlns:cc="http://creativecommons.org/ns#"
   xmlns:rdf="http://www.w3.org/1999/02/22-rdf-syntax-ns#"
   xmlns:svg="http://www.w3.org/2000/svg"
   xmlns="http://www.w3.org/2000/svg"
   xmlns:sodipodi="http://sodipodi.sourceforge.net/DTD/sodipodi-0.dtd"
   xmlns:inkscape="http://www.inkscape.org/namespaces/inkscape"
   width="400"
   height="400"
   viewBox="0 0 105.83333 105.83334"
   version="1.1"
   id="svg4535"
   inkscape:version="0.92.1 r15371"
   sodipodi:docname="Icon.svg"
   inkscape:export-xdpi="96"
   inkscape:export-ydpi="96">
  <defs
     id="defs4529" />
  <sodipodi:namedview
     id="base"
     pagecolor="#ffffff"
     bordercolor="#666666"
     borderopacity="1.0"
     inkscape:pageopacity="0.0"
     inkscape:pageshadow="2"
     inkscape:zoom="1.4"
     inkscape:cx="181.08504"
     inkscape:cy="263.16298"
     inkscape:document-units="mm"
     inkscape:current-layer="layer1"
     showgrid="true"
     units="px"
     inkscape:window-width="1920"
     inkscape:window-height="1017"
     inkscape:window-x="-8"
     inkscape:window-y="117"
     inkscape:window-maximized="1"
     inkscape:pagecheckerboard="true">
    <inkscape:grid
       type="xygrid"
       id="grid5080"
       spacingx="6.6145834"
       spacingy="6.6145834" />
  </sodipodi:namedview>
  <metadata
     id="metadata4532">
    <rdf:RDF>
      <cc:Work>
        <dc:format>image/svg+xml</dc:format>
        <dc:type rdf:resource="http://purl.org/dc/dcmitype/StillImage" />
        <dc:title>Audio to Audio</dc:title>
        <dc:source>https://thenounproject.com/term/audio-to-audio/914488/</dc:source>
        <cc:attributionURL>Oliviu Stoian</cc:attributionURL>
        <cc:license>https://creativecommons.org/licenses/by/3.0/</cc:license>
      </cc:Work>
    </rdf:RDF>
  </metadata>
  <g
     inkscape:label="Layer 1"
     inkscape:groupmode="layer"
     id="layer1"
     transform="translate(0,-191.16665)">
    <g
       transform="matrix(1.7635443,0,0,1.7635068,14.118692,191.15995)"
       style="fill:#ffffff;fill-rule:evenodd;stroke:none;stroke-width:1"
       id="g40">
      <g
         style="fill:#ffffff;stroke:none"
         transform="translate(-486,-2151)"
         id="g38">
        <g
           transform="translate(486,2151)"
           id="g36"
           style="fill:#ffffff;stroke:none">
          <path
             inkscape:connector-curvature="0"
             d="m 35,49.004 h 6 c 0.552285,0 1,-0.447715 1,-1 v -6 c 0,-0.552285 -0.447715,-1 -1,-1 h -6 c -0.552285,0 -1,0.447715 -1,1 v 6 c 0,0.552285 0.447715,1 1,1 z"
             id="path6"
             style="fill:#ffffff;stroke:none"
             sodipodi:nodetypes="sssssssss" />
          <path
             inkscape:connector-curvature="0"
             d="m 33,43.004 h 10 c 0.552285,0 1,-0.447715 1,-1 v -14 c 0,-0.552285 -0.447715,-1 -1,-1 H 33 c -0.552285,0 -1,0.447715 -1,1 v 14 c 0,0.552285 0.447715,1 1,1 z m 1,-14 h 8 v 12 h -8 z"
             id="path8"
             style="fill:#ffffff;stroke:none" />
          <path
             inkscape:connector-curvature="0"
             d="m 34,29.004 h 8 c 0.552285,0 1,-0.447715 1,-1 v -4 c 0,-0.552285 -0.447715,-1 -1,-1 h -8 c -0.552285,0 -1,0.447715 -1,1 v 4 c 0,0.552285 0.447715,1 1,1 z"
             id="path10"
             style="fill:#ffffff;stroke:none"
             sodipodi:nodetypes="sssssssss" />
          <path
             inkscape:connector-curvature="0"
             d="m 35,25.004 h 6 c 0.552285,0 1,-0.447715 1,-1 v -14 c 0,-0.5522847 -0.447715,-1 -1,-1 h -6 c -0.552285,0 -1,0.4477153 -1,1 v 14 c 0,0.552285 0.447715,1 1,1 z m 1,-14 h 4 v 12 h -4 z"
             id="path12"
             style="fill:#ffffff;stroke:none" />
          <path
             inkscape:connector-curvature="0"
             d="m 35,15.0038 h 6 c 0.552285,0 1,-0.447715 1,-1 0,-0.552285 -0.447715,-1 -1,-1 h -6 c -0.552285,0 -1,0.447715 -1,1 0,0.552285 0.447715,1 1,1 z"
             id="path14"
             style="fill:#ffffff;stroke:none" />
          <path
             inkscape:connector-curvature="0"
             d="m 41,3.0038 h -6 c -0.798753,0 -1.275133,0.8902596 -0.83198,1.5548059 0.986973,1.4800521 0.986973,3.4103361 0,4.8903882 C 33.724867,10.11354 34.201247,11.0038 35,11.0038 h 6 c 0.798753,0 1.275133,-0.89026 0.83198,-1.5548059 -0.986973,-1.4800521 -0.986973,-3.4103361 0,-4.8903882 C 42.275133,3.8940596 41.798753,3.0038 41,3.0038 Z"
             id="path16"
             style="fill:#ffffff;stroke:none"
             sodipodi:nodetypes="sssssssss" />
          <path
             inkscape:connector-curvature="0"
             d="m 38.464816,2.0038 0.666667,1 h -2.262966 l 0.666667,-1 z M 37,0.0038 c -0.334353,0 -0.646585,0.16710114 -0.83205,0.4452998 l -2,3 C 33.724913,4.1136545 34.201305,5.0038 35,5.0038 h 6 c 0.798695,0 1.275087,-0.8901455 0.83205,-1.5547002 l -2,-3 C 39.646585,0.17090114 39.334353,0.0038 39,0.0038 Z"
             id="path18"
             style="fill:#ffffff;stroke:none" />
          <path
             inkscape:connector-curvature="0"
             d="m 3,49.004 h 6 c 0.5522848,0 1,-0.447715 1,-1 v -6 c 0,-0.552285 -0.4477152,-1 -1,-1 H 3 c -0.5522847,0 -1,0.447715 -1,1 v 6 c 0,0.552285 0.4477153,1 1,1 z"
             id="path20"
             style="fill:#ffffff;stroke:none"
             sodipodi:nodetypes="sssssssss" />
          <path
             inkscape:connector-curvature="0"
             d="m 1,43.004 h 10 c 0.552285,0 1,-0.447715 1,-1 v -14 c 0,-0.552285 -0.447715,-1 -1,-1 H 1 c -0.55228475,0 -1,0.447715 -1,1 v 14 c 0,0.552285 0.44771525,1 1,1 z m 1,-14 h 8 v 12 H 2 Z"
             id="path22"
             style="fill:#ffffff;stroke:none" />
          <path
             inkscape:connector-curvature="0"
             d="m 2,29.004 h 8 c 0.552285,0 1,-0.447715 1,-1 v -4 c 0,-0.552285 -0.447715,-1 -1,-1 H 2 c -0.5522848,0 -1,0.447715 -1,1 v 4 c 0,0.552285 0.4477152,1 1,1 z"
             id="path24"
             style="fill:#ffffff;stroke:none"
             sodipodi:nodetypes="sssssssss" />
          <path
             inkscape:connector-curvature="0"
             d="m 3,25.004 h 6 c 0.5522848,0 1,-0.447715 1,-1 v -14 c 0,-0.5522847 -0.4477152,-1 -1,-1 H 3 c -0.5522847,0 -1,0.4477153 -1,1 v 14 c 0,0.552285 0.4477153,1 1,1 z m 1,-14 h 4 v 12 H 4 Z"
             id="path26"
             style="fill:#ffffff;stroke:none" />
          <path
             inkscape:connector-curvature="0"
             d="m 3,15.0038 h 6 c 0.5522848,0 1,-0.447715 1,-1 0,-0.552285 -0.4477152,-1 -1,-1 H 3 c -0.5522847,0 -1,0.447715 -1,1 0,0.552285 0.4477153,1 1,1 z"
             id="path28"
             style="fill:#ffffff;stroke:none" />
          <path
             inkscape:connector-curvature="0"
             d="M 9,3.0038 H 3 c -0.7987529,0 -1.2751327,0.8902596 -0.8319798,1.5548059 0.9869731,1.4800521 0.9869731,3.4103361 0,4.8903882 C 1.7248673,10.11354 2.2012471,11.0038 3,11.0038 h 6 c 0.7987529,0 1.275133,-0.89026 0.8319798,-1.5548059 -0.9869731,-1.4800521 -0.9869731,-3.4103361 0,-4.8903882 C 10.275133,3.8940596 9.7987529,3.0038 9,3.0038 Z"
             id="path30"
             style="fill:#ffffff;stroke:none"
             sodipodi:nodetypes="sssssssss" />
          <path
             inkscape:connector-curvature="0"
             d="m 6.4648162,2.0038 0.6666667,1 H 4.8685171 l 0.6666667,-1 z M 5,0.0038 c -0.3343532,0 -0.6465845,0.16710114 -0.8320503,0.4452998 l -2,3 C 1.7249132,4.1136545 2.2013046,5.0038 3,5.0038 h 6 c 0.7986954,0 1.275087,-0.8901455 0.8320503,-1.5547002 l -2,-3 C 7.6465845,0.17090114 7.3343532,0.0038 7,0.0038 Z"
             id="path32"
             style="fill:#ffffff;stroke:none" />
          <path
             inkscape:connector-curvature="0"
             d="m 35,48.0038 c 0,3.307082 -2.692652,6 -6,6 l -14.000929,0.013 C 11.692285,54.0168 9,51.324515 9,48.0168 9,47.451515 8.5522848,47.0038 8,47.0038 H 4 c -0.5522847,0 -1,0.447715 -1,1 0,6.630285 5.3827153,12.013 12,12.013 l 14.000929,-0.013 C 35.617285,60.0038 41,54.621085 41,48.0038 c 0,-0.552285 -0.447715,-1 -1,-1 h -4 c -0.552285,0 -1,0.447715 -1,1 z"
             id="path34"
             style="fill:#ffffff;stroke:none"
             sodipodi:nodetypes="sccssssccssss" />
        </g>
      </g>
    </g>
  </g>
</svg>
